<svg width="19" height="22" viewBox="0 0 19 22" fill="none" xmlns="http://www.w3.org/2000/svg">
<path d="M7.42843 2.4286H10.4083C10.7871 2.42866 11.1503 2.57912 11.4182 2.8469L17.7244 9.15315C17.9922 9.421 18.1427 9.78422 18.1427 10.163V18.8572C18.1427 19.4255 17.917 19.9705 17.5151 20.3724C17.1132 20.7743 16.5682 21 15.9999 21H6.71415C6.14583 21 5.60078 20.7743 5.19892 20.3724C4.79705 19.9705 4.57129 19.4255 4.57129 18.8572V13.1429" stroke="black" stroke-width="1.25" stroke-linecap="round" stroke-linejoin="round"/>
<path d="M11 2.78571V8.14286C11 8.52174 11.1505 8.8851 11.4184 9.15301C11.6863 9.42092 12.0497 9.57143 12.4286 9.57143H17.7857" stroke="black" stroke-width="1.25" stroke-linecap="round" stroke-linejoin="round"/>
<path d="M5.28571 3.14286V9.92857C5.28757 10.0698 5.26113 10.2099 5.20795 10.3408C5.15476 10.4716 5.07591 10.5905 4.97605 10.6903C4.87618 10.7902 4.75733 10.869 4.62649 10.9222C4.49566 10.9754 4.3555 11.0019 4.21429 11C3.67857 11 3.14286 10.5938 3.14286 9.92857V3.5C3.14286 2.13438 3.88259 1 5.28571 1C6.68884 1 7.42857 2.10714 7.42857 3.47232V9.66652C7.42857 11.5862 6.18661 13.1429 4.21429 13.1429C2.24196 13.1429 1 11.5866 1 9.66652V6" stroke="black" stroke-width="1.25" stroke-miterlimit="10" stroke-linecap="round"/>
</svg>
