<svg width="18" height="20" viewBox="0 0 18 20" fill="none" xmlns="http://www.w3.org/2000/svg">
<path d="M16.9764 9.33333H11.2077C10.6831 9.33333 10.1801 9.12262 9.80916 8.74755C9.43824 8.37247 9.22986 7.86377 9.22986 7.33333V1.5C9.22986 1.4558 9.2125 1.41341 9.18159 1.38215C9.15068 1.35089 9.10876 1.33333 9.06505 1.33333H6.87089C6.79394 1.18922 6.7043 1.05242 6.60306 0.924583C6.12797 0.328333 5.42213 0 4.61493 0C3.06234 0 1.97783 1.23375 1.97783 3V9C1.97783 10.0417 2.81593 10.6667 3.62602 10.6667C3.84312 10.6691 4.05851 10.6276 4.25955 10.5447C4.46059 10.4618 4.64323 10.3391 4.79675 10.1839C4.95027 10.0286 5.07159 9.84393 5.15358 9.64063C5.23557 9.43734 5.27658 9.21954 5.27421 9V2.66667C5.27421 2.48986 5.20475 2.32029 5.08111 2.19526C4.95747 2.07024 4.78978 2 4.61493 2C4.44008 2 4.27239 2.07024 4.14875 2.19526C4.02512 2.32029 3.95566 2.48986 3.95566 2.66667V9C3.95709 9.04417 3.94954 9.08816 3.93348 9.12926C3.91743 9.17035 3.8932 9.20768 3.8623 9.23893C3.8314 9.27017 3.79448 9.29467 3.75384 9.31091C3.7132 9.32715 3.66969 9.33478 3.62602 9.33333C3.53413 9.33333 3.29638 9.27333 3.29638 9V3C3.29638 2.19417 3.64291 1.33333 4.61493 1.33333C5.8383 1.33333 5.93348 2.58958 5.93348 2.97417V8.75542C5.93348 9.4825 5.70809 10.14 5.29852 10.6079C4.88276 11.0833 4.30466 11.3333 3.62602 11.3333C2.94738 11.3333 2.36927 11.0833 1.95352 10.6079C1.54394 10.14 1.31855 9.4825 1.31855 8.75542V5.33333C1.31855 5.15652 1.24909 4.98695 1.12545 4.86193C1.00182 4.7369 0.834127 4.66667 0.659276 4.66667C0.484425 4.66667 0.316736 4.7369 0.193097 4.86193C0.0694592 4.98695 0 5.15652 0 5.33333V8.75542C0 10.9017 1.36759 12.49 3.29638 12.6525V17.3333C3.29638 18.0406 3.57422 18.7189 4.06877 19.219C4.56332 19.719 5.23408 20 5.93348 20H14.5041C15.2035 20 15.8742 19.719 16.3688 19.219C16.8633 18.7189 17.1412 18.0406 17.1412 17.3333V9.5C17.1412 9.4558 17.1238 9.41341 17.0929 9.38215C17.062 9.35089 17.0201 9.33333 16.9764 9.33333Z" fill="black"/>
<path d="M11.2081 8.00001H16.5569C16.5731 7.99994 16.589 7.99502 16.6025 7.98585C16.616 7.97669 16.6265 7.9637 16.6327 7.94852C16.6389 7.93334 16.6405 7.91663 16.6374 7.90052C16.6342 7.8844 16.6264 7.86958 16.615 7.85793L10.6893 1.86584C10.6778 1.85426 10.6632 1.84638 10.6472 1.84319C10.6313 1.84001 10.6148 1.84166 10.5997 1.84793C10.5847 1.85421 10.5719 1.86484 10.5628 1.87848C10.5538 1.89212 10.5489 1.90816 10.5488 1.92459V7.33334C10.5488 7.51015 10.6183 7.67972 10.7419 7.80475C10.8656 7.92977 11.0333 8.00001 11.2081 8.00001Z" fill="black"/>
</svg>
