<svg width="16" height="21" viewBox="0 0 16 21" fill="none" xmlns="http://www.w3.org/2000/svg">
<path d="M9.76218 0.738686H1.95166C0.877708 0.738686 0.00878682 1.61737 0.00878682 2.69132L-0.000976562 18.3124C-0.000976562 19.3863 0.867944 20.265 1.94189 20.265H13.6674C14.7414 20.265 15.6201 19.3863 15.6201 18.3124V6.59658L9.76218 0.738686ZM11.7148 11.4782H8.78587V15.1393C8.78587 16.35 7.79979 17.3361 6.58916 17.3361C5.37852 17.3361 4.39244 16.35 4.39244 15.1393C4.39244 13.9287 5.37852 12.9426 6.58916 12.9426C7.03826 12.9426 7.45808 13.0793 7.80955 13.3136V9.52553H11.7148V11.4782ZM8.78587 7.5729V2.20316L14.1556 7.5729H8.78587Z" fill="#E1806C"/>
</svg>
