<svg width="24" height="24" viewBox="0 0 24 24" fill="none" xmlns="http://www.w3.org/2000/svg">
<path d="M17.9396 11.9396C20.0816 9.79776 20.825 6.7867 20.1697 4.04155L23.1636 2.75844C23.4683 2.62791 23.821 2.76899 23.9515 3.07357C23.9834 3.14826 24 3.22867 24 3.30993V20.4L15.6 24L8.4 20.4L0.836352 23.6416C0.531768 23.7721 0.179052 23.631 0.0485161 23.3264C0.0165001 23.2518 0 23.1713 0 23.09V6L3.7547 4.39085C3.24028 7.03959 4.0088 9.88824 6.0603 11.9396L12 17.8794L17.9396 11.9396ZM16.2426 10.2426L12 14.4853L7.75736 10.2426C5.41421 7.89949 5.41421 4.10051 7.75736 1.75737C10.1005 -0.585789 13.8995 -0.585789 16.2426 1.75737C18.5858 4.10051 18.5858 7.89949 16.2426 10.2426Z" fill="white"/>
</svg>
