<svg width="15" height="16" viewBox="0 0 15 16" fill="none" xmlns="http://www.w3.org/2000/svg">
<path d="M10.7691 5.5712C11.1092 5.41874 11.4324 5.23105 11.7333 5.0112V6.4C11.7333 6.70827 11.5061 7.0976 10.9301 7.47413C11.5649 7.4383 12.2005 7.52895 12.8 7.7408V3.2C12.8 2.12587 11.8667 1.328 10.7691 0.8288C9.62347 0.308267 8.07787 0 6.4 0C4.72213 0 3.17653 0.308267 2.03093 0.8288C0.933333 1.328 0 2.12587 0 3.2V12.8C0 13.8741 0.933333 14.672 2.03093 15.1712C3.17653 15.6907 4.72213 16 6.4 16C6.97173 16 7.52853 15.9637 8.05867 15.8965C7.7256 15.6083 7.43379 15.2756 7.19147 14.9077C6.93262 14.9248 6.6688 14.9333 6.4 14.9333C4.8384 14.9333 3.4496 14.6453 2.47253 14.2005C1.4464 13.7333 1.06667 13.1979 1.06667 12.8V11.4112C1.35573 11.6267 1.68533 11.8144 2.03093 11.9712C3.17653 12.4907 4.72213 12.8 6.4 12.8H6.4288C6.39004 12.4455 6.39004 12.0878 6.4288 11.7333H6.4C4.8384 11.7333 3.4496 11.4453 2.47253 11.0005C1.4464 10.5333 1.06667 9.99787 1.06667 9.6V8.2112C1.35573 8.42667 1.68533 8.6144 2.03093 8.7712C3.17653 9.29067 4.72213 9.6 6.4 9.6C6.67947 9.6 6.95467 9.59147 7.2256 9.5744C7.54315 9.10574 7.94111 8.69696 8.40107 8.36693C7.78453 8.4736 7.1104 8.53333 6.4 8.53333C4.8384 8.53333 3.4496 8.24533 2.47253 7.80053C1.4464 7.33333 1.06667 6.79787 1.06667 6.4V5.0112C1.35573 5.22667 1.68533 5.4144 2.03093 5.5712C3.17653 6.09173 4.72213 6.4 6.4 6.4C8.07787 6.4 9.62347 6.09173 10.7691 5.5712ZM1.06667 3.2C1.06667 2.80107 1.4464 2.26667 2.47253 1.79947C3.4496 1.35573 4.8384 1.06667 6.4 1.06667C7.9616 1.06667 9.3504 1.35467 10.3275 1.79947C11.3536 2.26667 11.7333 2.80213 11.7333 3.2C11.7333 3.59893 11.3536 4.13333 10.3275 4.60053C9.3504 5.04427 7.9616 5.33333 6.4 5.33333C4.8384 5.33333 3.4496 5.04533 2.47253 4.60053C1.4464 4.13333 1.06667 3.59787 1.06667 3.2Z" fill="#5234A5"/>
<path d="M14.9335 12.2667C14.9335 13.2568 14.5401 14.2064 13.84 14.9065C13.1399 15.6067 12.1903 16 11.2001 16C10.21 16 9.2604 15.6067 8.56027 14.9065C7.86013 14.2064 7.4668 13.2568 7.4668 12.2667C7.4668 11.2765 7.86013 10.3269 8.56027 9.62679C9.2604 8.92666 10.21 8.53333 11.2001 8.53333C12.1903 8.53333 13.1399 8.92666 13.84 9.62679C14.5401 10.3269 14.9335 11.2765 14.9335 12.2667ZM11.2001 10.1333C11.0587 10.1333 10.923 10.1895 10.823 10.2895C10.723 10.3896 10.6668 10.5252 10.6668 10.6667V12.2667C10.6668 12.4081 10.723 12.5438 10.823 12.6438C10.923 12.7438 11.0587 12.8 11.2001 12.8C11.3416 12.8 11.4772 12.7438 11.5773 12.6438C11.6773 12.5438 11.7335 12.4081 11.7335 12.2667V10.6667C11.7335 10.5252 11.6773 10.3896 11.5773 10.2895C11.4772 10.1895 11.3416 10.1333 11.2001 10.1333ZM11.2001 14.4C11.3416 14.4 11.4772 14.3438 11.5773 14.2438C11.6773 14.1438 11.7335 14.0081 11.7335 13.8667C11.7335 13.7252 11.6773 13.5896 11.5773 13.4895C11.4772 13.3895 11.3416 13.3333 11.2001 13.3333C11.0587 13.3333 10.923 13.3895 10.823 13.4895C10.723 13.5896 10.6668 13.7252 10.6668 13.8667C10.6668 14.0081 10.723 14.1438 10.823 14.2438C10.923 14.3438 11.0587 14.4 11.2001 14.4Z" fill="#7E3030"/>
</svg>
