<svg width="15" height="16" viewBox="0 0 15 16" fill="none" xmlns="http://www.w3.org/2000/svg">
<path d="M11.1996 16C12.1898 16 13.1394 15.6067 13.8395 14.9065C14.5396 14.2064 14.933 13.2568 14.933 12.2667C14.933 11.2765 14.5396 10.3269 13.8395 9.62679C13.1394 8.92666 12.1898 8.53333 11.1996 8.53333C10.2095 8.53333 9.25991 8.92666 8.55978 9.62679C7.85964 10.3269 7.46631 11.2765 7.46631 12.2667C7.46631 13.2568 7.85964 14.2064 8.55978 14.9065C9.25991 15.6067 10.2095 16 11.1996 16ZM12.9906 11.2075L11.5666 13.5819C11.504 13.6862 11.4185 13.7748 11.3165 13.8411C11.2145 13.9074 11.0987 13.9496 10.9779 13.9644C10.8572 13.9792 10.7347 13.9663 10.6197 13.9266C10.5047 13.8869 10.4002 13.8216 10.3143 13.7355L9.48871 12.9109C9.38856 12.8108 9.3323 12.675 9.3323 12.5333C9.3323 12.3917 9.38856 12.2559 9.48871 12.1557C9.58885 12.0556 9.72468 11.9993 9.86631 11.9993C10.0079 11.9993 10.1438 12.0556 10.2439 12.1557L10.8274 12.7403L12.0754 10.6592C12.1114 10.5991 12.1589 10.5467 12.2151 10.5049C12.2714 10.4632 12.3353 10.4329 12.4032 10.4159C12.4712 10.3989 12.5418 10.3954 12.6111 10.4057C12.6804 10.4159 12.747 10.4397 12.8071 10.4757C12.8672 10.5117 12.9196 10.5592 12.9614 10.6155C13.0031 10.6717 13.0334 10.7356 13.0504 10.8036C13.0674 10.8715 13.0709 10.9422 13.0606 11.0115C13.0504 11.0808 13.0266 11.1474 12.9906 11.2075Z" fill="#128124"/>
<path d="M10.7691 5.5712C11.1092 5.41874 11.4324 5.23105 11.7333 5.0112V6.4C11.7333 6.70827 11.5061 7.0976 10.9301 7.47413C11.5649 7.4383 12.2005 7.52895 12.8 7.7408V3.2C12.8 2.12587 11.8667 1.328 10.7691 0.8288C9.62347 0.308267 8.07787 0 6.4 0C4.72213 0 3.17653 0.308267 2.03093 0.8288C0.933333 1.328 0 2.12587 0 3.2V12.8C0 13.8741 0.933333 14.672 2.03093 15.1712C3.17653 15.6907 4.72213 16 6.4 16C6.97173 16 7.52853 15.9637 8.05867 15.8965C7.7256 15.6083 7.43379 15.2756 7.19147 14.9077C6.93262 14.9248 6.6688 14.9333 6.4 14.9333C4.8384 14.9333 3.4496 14.6453 2.47253 14.2005C1.4464 13.7333 1.06667 13.1979 1.06667 12.8V11.4112C1.35573 11.6267 1.68533 11.8144 2.03093 11.9712C3.17653 12.4907 4.72213 12.8 6.4 12.8H6.4288C6.39004 12.4455 6.39004 12.0878 6.4288 11.7333H6.4C4.8384 11.7333 3.4496 11.4453 2.47253 11.0005C1.4464 10.5333 1.06667 9.99787 1.06667 9.6V8.2112C1.35573 8.42667 1.68533 8.6144 2.03093 8.7712C3.17653 9.29067 4.72213 9.6 6.4 9.6C6.67947 9.6 6.95467 9.59147 7.2256 9.5744C7.54315 9.10574 7.94111 8.69696 8.40107 8.36693C7.78453 8.4736 7.1104 8.53333 6.4 8.53333C4.8384 8.53333 3.4496 8.24533 2.47253 7.80053C1.4464 7.33333 1.06667 6.79787 1.06667 6.4V5.0112C1.35573 5.22667 1.68533 5.4144 2.03093 5.5712C3.17653 6.09173 4.72213 6.4 6.4 6.4C8.07787 6.4 9.62347 6.09173 10.7691 5.5712ZM1.06667 3.2C1.06667 2.80107 1.4464 2.26667 2.47253 1.79947C3.4496 1.35573 4.8384 1.06667 6.4 1.06667C7.9616 1.06667 9.3504 1.35467 10.3275 1.79947C11.3536 2.26667 11.7333 2.80213 11.7333 3.2C11.7333 3.59893 11.3536 4.13333 10.3275 4.60053C9.3504 5.04427 7.9616 5.33333 6.4 5.33333C4.8384 5.33333 3.4496 5.04533 2.47253 4.60053C1.4464 4.13333 1.06667 3.59787 1.06667 3.2Z" fill="#5234A5"/>
</svg>
