<svg width="48" height="60" viewBox="0 0 48 60" fill="none" xmlns="http://www.w3.org/2000/svg">
<path d="M24.5575 37.6561C22.7065 37.6561 21.6265 39.4171 21.6265 41.7751C21.6265 44.1481 22.7395 45.8251 24.5755 45.8251C26.4265 45.8251 27.4885 44.0611 27.4885 41.7031C27.4885 39.5251 26.4445 37.6561 24.5575 37.6561Z" fill="#1546A6"/>
<path d="M30 0H6C4.4087 0 2.88258 0.632141 1.75736 1.75736C0.632141 2.88258 0 4.4087 0 6V54C0 55.5913 0.632141 57.1174 1.75736 58.2426C2.88258 59.3679 4.4087 60 6 60H42C43.5913 60 45.1174 59.3679 46.2426 58.2426C47.3679 57.1174 48 55.5913 48 54V18L30 0ZM15.465 46.362C14.187 47.424 12.246 47.925 9.873 47.925C8.448 47.925 7.443 47.835 6.759 47.745V35.832C7.98591 35.6553 9.22448 35.5721 10.464 35.583C12.768 35.583 14.262 35.997 15.429 36.879C16.689 37.815 17.481 39.309 17.481 41.445C17.481 43.77 16.635 45.372 15.465 46.362ZM24.435 48C20.835 48 18.732 45.282 18.732 41.826C18.732 38.193 21.051 35.478 24.633 35.478C28.356 35.478 30.39 38.265 30.39 41.613C30.387 45.588 27.975 48 24.435 48ZM38.4 45.714C39.225 45.714 40.143 45.531 40.686 45.318L41.1 47.457C40.596 47.709 39.462 47.979 37.989 47.979C33.798 47.979 31.638 45.372 31.638 41.916C31.638 37.779 34.587 35.478 38.259 35.478C39.681 35.478 40.758 35.766 41.244 36.018L40.686 38.196C39.9556 37.8941 39.1723 37.7412 38.382 37.746C36.204 37.746 34.512 39.06 34.512 41.76C34.512 44.187 35.952 45.714 38.4 45.714ZM30 21H27V6L42 21H30Z" fill="#1546A6"/>
<path d="M10.7522 37.6891C10.1432 37.6891 9.74718 37.7431 9.51318 37.7971V45.7321C9.74718 45.7861 10.1252 45.7861 10.4642 45.7861C12.9482 45.8041 14.5652 44.4391 14.5652 41.5411C14.5832 39.0211 13.1102 37.6891 10.7522 37.6891Z" fill="#1546A6"/>
</svg>
