<svg width="39" height="37" viewBox="0 0 39 37" fill="none" xmlns="http://www.w3.org/2000/svg">
<rect x="0.770833" y="0.770833" width="37.067" height="35.4583" stroke="#ACA8F9" stroke-width="1.54167"/>
<path d="M13 20C10.8 20 9 21.8 9 24C9 26.2 10.8 28 13 28C15.2 28 17 26.2 17 24C17 21.8 15.2 20 13 20ZM19 10C16.8 10 15 11.8 15 14C15 16.2 16.8 18 19 18C21.2 18 23 16.2 23 14C23 11.8 21.2 10 19 10ZM25 20C22.8 20 21 21.8 21 24C21 26.2 22.8 28 25 28C27.2 28 29 26.2 29 24C29 21.8 27.2 20 25 20Z" fill="#ACA8F9"/>
</svg>
