<svg width="39" height="37" viewBox="0 0 39 37" fill="none" xmlns="http://www.w3.org/2000/svg">
<rect x="0.770833" y="0.770833" width="37.067" height="35.4583" stroke="#ACA8F9" stroke-width="1.54167"/>
<path d="M9 12.5556H29M16.7778 8.11111V10.3333M21.2222 8.11111V10.3333M19 24.2222V31.4444M23.4444 19.2222C26.0819 20.5363 27.8889 23.2785 27.8889 27V31.4444H10.1111V27C10.1111 23.273 11.9234 20.5283 14.5556 19.2222C14.5556 21.6768 16.5454 23.6667 19 23.6667C21.4546 23.6667 23.4444 21.6768 23.4444 19.2222ZM19 20.3333C22.6819 20.3333 25.6667 17.3486 25.6667 13.6667C25.6667 9.98477 22.6819 7 19 7C15.3181 7 12.3333 9.98477 12.3333 13.6667C12.3333 17.3486 15.3181 20.3333 19 20.3333Z" stroke="#ACA8F9" stroke-width="1.55556"/>
</svg>
