<svg width="40" height="47" viewBox="0 0 40 47" fill="none" xmlns="http://www.w3.org/2000/svg">
<path d="M38.0406 31.9121C37.1948 29.3518 36.7625 26.6737 36.76 23.9781V17.3176C36.8216 13.0972 35.3109 9.00398 32.5203 5.82992C29.7392 2.65086 25.8793 0.606795 21.6802 0.0894426C19.3597 -0.150577 16.9991 0.0894427 14.7588 0.846173C12.5186 1.5629 10.479 2.75967 8.76034 4.35647C7.03314 5.91208 5.65648 7.81522 4.72122 9.94027C3.78132 12.0645 3.29074 14.3591 3.28011 16.6808V24.0148C3.27521 26.6993 2.84296 29.366 1.9995 31.9154L0 37.8126L1.60161 40.0061H13.3211C13.3211 41.7596 14.04 43.4731 15.2804 44.7132C16.5176 45.9466 18.2396 46.6667 20.0017 46.6667C21.7604 46.6667 23.4791 45.9499 24.7195 44.7132C25.96 43.4764 26.6823 41.7596 26.6823 40.0061H38.4017L40 37.8126L38.0406 31.9121ZM22.3589 42.403C22.0513 42.7158 21.6847 42.9649 21.2801 43.136C20.8756 43.3071 20.4411 43.3967 20.0017 43.3997C19.5615 43.3967 19.1262 43.3067 18.721 43.1351C18.3159 42.9634 17.9488 42.7135 17.6411 42.3996C17.3267 42.0932 17.0762 41.7278 16.904 41.3244C16.7319 40.9211 16.6415 40.4878 16.638 40.0494H23.3219C23.3358 40.4868 23.2576 40.9223 23.0923 41.3276C22.9271 41.733 22.675 42.0994 22.3589 42.403ZM3.91875 36.7025L5.15924 32.9889C6.1266 30.0957 6.62658 27.0677 6.64047 24.0181V16.6808C6.64047 14.804 7.04171 12.9705 7.80072 11.2937C8.55973 9.58024 9.63972 8.06344 11.0407 6.82667C12.4417 5.55323 14.0834 4.59315 15.8422 4.03644C17.6411 3.43639 19.5202 3.23637 21.3592 3.43639C24.7296 3.87824 27.8198 5.53912 30.0426 8.10345C32.2661 10.671 33.4614 13.966 33.3996 17.3576V24.0581C33.3996 27.0884 33.8811 30.1186 34.8809 33.0289L36.1214 36.7392H3.92209V36.6992L3.91875 36.7025Z" fill="#5234A5"/>
</svg>
