<svg width="40" height="47" viewBox="0 0 40 47" fill="none" xmlns="http://www.w3.org/2000/svg">
<path d="M30.9453 24.334C30.9453 24.334 30.9453 23.8937 30.9453 23.6115C22.7727 21.3893 16.6188 14.7226 20.2309 3.77468C20.2309 3.77468 19.9875 3.73425 19.8654 3.71692C18.1721 3.51751 16.442 3.71692 14.7855 4.31509C13.1658 4.87339 11.6565 5.83047 10.3682 7.10658C9.07979 8.34282 8.0859 9.85821 7.38651 11.573C6.68709 13.2479 6.31899 15.0823 6.31899 16.9565V24.2942C6.31899 27.3249 5.84043 30.3556 4.95698 33.2667L3.81583 36.9754V37.0154H33.4487L32.3074 33.3067C31.3871 30.3956 30.9453 27.3648 30.9453 24.334Z" fill="black"/>
<path fill-rule="evenodd" clip-rule="evenodd" d="M30.9381 23.6002C31.6884 23.8453 33.2145 24.1467 33.8292 23.9763C33.8292 26.688 34.2342 29.3599 35.0071 31.912L36.8108 37.814L35.3385 40.0074H24.5528C24.5528 41.7621 23.8902 43.4767 22.7491 44.7131C21.608 45.9494 20.0251 46.6671 18.4054 46.6671C16.7858 46.6671 15.2029 45.9494 14.0617 44.7131C12.9206 43.4767 12.258 41.7621 12.258 40.0074H1.47244L0 37.814L1.84054 31.912C2.61356 29.3599 3.01849 26.688 3.01849 24.0162V16.6785C3.01849 14.3257 3.49702 12.0527 4.34367 9.9391C5.19032 7.82555 6.47871 5.91136 8.06158 4.35611C9.64443 2.76097 11.5218 1.56462 13.5832 0.846815C15.6446 0.0891079 17.8164 -0.150151 19.9515 0.0891077C20.6793 0.186742 21.3953 0.338077 22.0954 0.540745C21.2844 1.41362 20.2309 3.77468 20.2309 3.77468C20.2309 3.77468 19.9875 3.73425 19.8654 3.71692C18.1721 3.51751 16.442 3.71692 14.7855 4.31509C13.1658 4.87339 11.6565 5.83047 10.3682 7.10658C9.07979 8.34282 8.0859 9.85821 7.38651 11.573C6.68709 13.2479 6.31899 15.0823 6.31899 16.9565V24.2942C6.31899 27.3249 5.84043 30.3556 4.95698 33.2667L3.81583 36.9754V37.0154H33.4487L32.3074 33.3067C31.3871 30.3956 30.9453 27.3648 30.9453 24.334V23.6115L30.9381 23.6002ZM20.5773 42.4001C19.9883 43.0381 19.2153 43.3971 18.4054 43.3971C17.5956 43.3971 16.8226 43.0381 16.2336 42.4001C15.6446 41.7621 15.3133 40.9247 15.3133 40.0474H21.4607C21.4975 40.9247 21.1662 41.7621 20.5773 42.4001Z" fill="black"/>
<path d="M30.7689 20.0002C35.8671 20.0002 39.9998 15.523 39.9998 10.0001C39.9998 4.47721 35.8671 0 30.7689 0C25.6707 0 21.5381 4.47721 21.5381 10.0001C21.5381 15.523 25.6707 20.0002 30.7689 20.0002Z" fill="#5234A5"/>
</svg>
