<svg width="34" height="34" viewBox="0 0 34 34" fill="none" xmlns="http://www.w3.org/2000/svg">
<path d="M31.5455 1H2.45455C2.06878 1 1.69881 1.15325 1.42603 1.42603C1.15325 1.69881 1 2.06878 1 2.45455V31.5455C1 31.9312 1.15325 32.3012 1.42603 32.574C1.69881 32.8468 2.06878 33 2.45455 33H31.5455C31.9312 33 32.3012 32.8468 32.574 32.574C32.8468 32.3012 33 31.9312 33 31.5455V2.45455C33 2.06878 32.8468 1.69881 32.574 1.42603C32.3012 1.15325 31.9312 1 31.5455 1ZM4.23273 33C4.89205 30.1072 6.51449 27.5242 8.83414 25.6743C11.1538 23.8244 14.033 22.8173 17 22.8182C15.5616 22.8182 14.1555 22.3916 12.9595 21.5925C11.7635 20.7934 10.8313 19.6575 10.2809 18.3286C9.73042 16.9997 9.5864 15.5374 9.86702 14.1266C10.1476 12.7158 10.8403 11.42 11.8574 10.4029C12.8745 9.38575 14.1704 8.69309 15.5812 8.41247C16.9919 8.13185 18.4542 8.27587 19.7832 8.82633C21.1121 9.37679 22.2479 10.309 23.0471 11.5049C23.8462 12.7009 24.2727 14.107 24.2727 15.5455C24.2727 17.4743 23.5065 19.3241 22.1426 20.688C20.7787 22.052 18.9288 22.8182 17 22.8182C19.967 22.8173 22.8462 23.8244 25.1659 25.6743C27.4855 27.5242 29.1079 30.1072 29.7673 33H4.23273Z" fill="#999E86"/>
<path d="M17 22.8182C14.033 22.8173 11.1538 23.8244 8.83414 25.6743C6.51449 27.5242 4.89205 30.1072 4.23273 33H29.7673C29.1079 30.1072 27.4855 27.5242 25.1659 25.6743C22.8462 23.8244 19.967 22.8173 17 22.8182ZM17 22.8182C15.5616 22.8182 14.1555 22.3916 12.9595 21.5925C11.7635 20.7934 10.8313 19.6575 10.2809 18.3286C9.73042 16.9997 9.5864 15.5374 9.86702 14.1266C10.1476 12.7158 10.8403 11.42 11.8574 10.4029C12.8745 9.38575 14.1704 8.69309 15.5812 8.41247C16.9919 8.13185 18.4542 8.27587 19.7832 8.82633C21.1121 9.37679 22.2479 10.309 23.0471 11.5049C23.8462 12.7009 24.2727 14.107 24.2727 15.5455C24.2727 17.4743 23.5065 19.3241 22.1426 20.688C20.7787 22.052 18.9288 22.8182 17 22.8182ZM31.5455 1H2.45455C2.06878 1 1.69881 1.15325 1.42603 1.42603C1.15325 1.69881 1 2.06878 1 2.45455V31.5455C1 31.9312 1.15325 32.3012 1.42603 32.574C1.69881 32.8468 2.06878 33 2.45455 33H31.5455C31.9312 33 32.3012 32.8468 32.574 32.574C32.8468 32.3012 33 31.9312 33 31.5455V2.45455C33 2.06878 32.8468 1.69881 32.574 1.42603C32.3012 1.15325 31.9312 1 31.5455 1Z" stroke="black" stroke-width="0.5"/>
</svg>
