<svg width="16" height="24" viewBox="0 0 16 24" fill="none" xmlns="http://www.w3.org/2000/svg">
<path d="M0.4147 2.556L0.58676 4.37611C1.23551 4.43744 1.88146 4.56356 2.52134 4.72674L2.34745 2.88733C1.70704 2.73877 1.06275 2.61663 0.4147 2.556ZM6.00792 4.26222L5.67123 0.700526L3.85112 0.528466L6.04141 23.6981L7.86152 23.8702L7.25164 17.4187L8.50737 17.5381C8.36604 16.1017 7.79608 14.6594 6.87163 13.3988L6.59444 10.4665C8.67043 12.3199 10.1379 14.8818 10.3916 17.5586L12.2117 17.7307C11.8597 13.9998 9.53139 10.4629 6.3821 8.22037L6.19653 6.25738C7.33783 6.92928 8.402 7.75374 9.35288 8.70276C11.8445 11.1944 13.3807 14.3075 13.6795 17.4689L15.4996 17.6409C15.1555 13.9937 13.3862 10.405 10.5184 7.53724C9.18198 6.20816 7.65228 5.09746 6.00792 4.26222ZM0.324947 5.84393L0.497007 7.66403C1.28276 7.74175 2.07448 7.92538 2.85061 8.20992L2.67308 6.33189C1.90517 6.08963 1.11986 5.91971 0.324947 5.84393ZM0.516997 9.54886L0.689056 11.369C1.5798 11.4532 2.44113 11.7795 3.23233 12.2479L3.04287 10.2437C2.22129 9.86749 1.36567 9.63212 0.516997 9.54886ZM3.69679 17.1611L3.44126 14.458C3.15793 14.1987 2.81987 14.0143 2.46794 13.9269C2.11602 13.8395 1.76531 13.853 1.45823 13.9656C1.15115 14.0783 0.900841 14.2853 0.737579 14.5617C0.574317 14.8381 0.505093 15.172 0.538277 15.5231C0.571461 15.8741 0.705632 16.2272 0.924566 16.5397C1.1435 16.8523 1.43782 17.1108 1.77193 17.2841C2.10605 17.4574 2.46565 17.538 2.80725 17.5161C3.14885 17.4943 3.45782 17.371 3.69679 17.1611Z" fill="black"/>
</svg>
