<svg width="28" height="27" viewBox="0 0 28 27" fill="none" xmlns="http://www.w3.org/2000/svg">
<path d="M18.0986 8.95682C20.5902 11.4485 21.9582 14.7299 21.9516 18.1967L23.9476 18.193C23.9559 14.1933 22.3806 10.4104 19.5128 7.54259C16.6443 4.67546 12.8621 3.09953 8.86243 3.10778L8.85867 5.10374C12.3255 5.0972 15.6069 6.46517 18.0986 8.95682ZM16.2195 18.8258C16.2277 14.4866 12.5688 10.8277 8.22958 10.8359L8.22582 12.8319C11.4823 12.8257 14.2297 15.5731 14.2235 18.8296L16.2195 18.8258Z" fill="#5234A5"/>
<path d="M20.2994 18.6434C20.3129 12.1883 14.8682 6.7436 8.4131 6.75719L8.40933 8.75315C13.7832 8.74301 18.3135 13.2734 18.3034 18.6472L20.2994 18.6434Z" fill="#5234A5"/>
<path d="M8.19909 18.8565C8.97721 19.6346 10.2412 19.6323 11.0222 18.8512C11.8033 18.0701 11.8057 16.8062 11.0276 16.028C10.2494 15.2499 8.98548 15.2523 8.20442 16.0334C7.42336 16.8144 7.42097 18.0784 8.19909 18.8565Z" fill="#5234A5"/>
</svg>
