<svg width="39" height="37" viewBox="0 0 39 37" fill="none" xmlns="http://www.w3.org/2000/svg">
<rect x="0.770833" y="0.770833" width="37.067" height="35.4583" stroke="#ACA8F9" stroke-width="1.54167"/>
<path d="M28.6326 24.6665L24.0689 20.5171C23.8532 20.321 23.5697 20.2165 23.2783 20.2255C22.9869 20.2345 22.7105 20.3564 22.5073 20.5654L19.8207 23.3283C19.174 23.2048 17.874 22.7995 16.5357 21.4647C15.1975 20.1253 14.7922 18.8219 14.6721 18.1797L17.4328 15.492C17.642 15.2889 17.7641 15.0124 17.7731 14.721C17.7821 14.4295 17.6774 14.146 17.481 13.9304L13.3327 9.3678C13.1363 9.15152 12.8633 9.02034 12.5717 9.0021C12.2801 8.98386 11.9929 9.08001 11.7711 9.27013L9.33487 11.3594C9.14078 11.5542 9.02493 11.8135 9.0093 12.088C8.99246 12.3687 8.67137 19.0172 13.8267 24.1748C18.3242 28.6711 23.9578 29.0001 25.5093 29.0001C25.7361 29.0001 25.8753 28.9933 25.9123 28.9911C26.1868 28.9757 26.446 28.8594 26.6398 28.6644L28.728 26.2271C28.9189 26.0059 29.0157 25.7189 28.9979 25.4274C28.9801 25.1358 28.849 24.8628 28.6326 24.6665Z" fill="#ACA8F9"/>
</svg>
