<svg width="14" height="14" viewBox="0 0 14 14" fill="none" xmlns="http://www.w3.org/2000/svg">
<path d="M13.9687 0.600212C14.0005 0.520709 14.0083 0.433614 13.9911 0.349725C13.9739 0.265837 13.9324 0.188843 13.8719 0.128289C13.8113 0.0677355 13.7343 0.0262851 13.6504 0.00907672C13.5665 -0.00813171 13.4794 -0.000341415 13.3999 0.0314818L0.671758 5.12293H0.670883L0.275396 5.28043C0.200491 5.3103 0.135301 5.36031 0.0870292 5.42491C0.0387573 5.48951 0.00928147 5.5662 0.00185775 5.6465C-0.00556596 5.72681 0.00935133 5.8076 0.0449618 5.87996C0.0805724 5.95231 0.13549 6.01342 0.203649 6.05652L0.562387 6.28402L0.563262 6.28577L4.93373 9.06642L7.71439 13.4369L7.71614 13.4386L7.94363 13.7974C7.98687 13.8653 8.04801 13.9199 8.12032 13.9553C8.19262 13.9907 8.27328 14.0054 8.35343 13.9979C8.43358 13.9904 8.5101 13.961 8.57457 13.9128C8.63905 13.8646 8.68897 13.7995 8.71885 13.7248L13.9687 0.600212ZM12.3649 2.25391L5.80783 8.81093L5.61971 8.51519C5.58524 8.46092 5.53924 8.41491 5.48497 8.38044L5.18923 8.19232L11.7462 1.6353L12.777 1.22319L12.3649 2.25391Z" fill="white"/>
</svg>
