<svg width="17" height="21" viewBox="0 0 17 21" fill="none" xmlns="http://www.w3.org/2000/svg">
<path d="M10.2573 0.738708H2.44677C1.9289 0.738708 1.43224 0.944432 1.06605 1.31062C0.699864 1.67681 0.494141 2.17347 0.494141 2.69134V18.3124C0.494141 18.8303 0.699864 19.3269 1.06605 19.6931C1.43224 20.0593 1.9289 20.265 2.44677 20.265H14.1626C14.6804 20.265 15.1771 20.0593 15.5433 19.6931C15.9095 19.3269 16.1152 18.8303 16.1152 18.3124V6.5966L10.2573 0.738708ZM6.35008 13.2043H5.27321V16.4008H4.37792V13.2043H3.31862V12.4545H6.35008V13.2043ZM9.01054 16.4008L8.65419 15.6871C8.50774 15.4118 8.41401 15.2067 8.30369 14.9783H8.291C8.20996 15.2058 8.11038 15.4108 7.98639 15.6871L7.65932 16.4008H6.63907L7.78234 14.4042L6.68008 12.4545H7.70521L8.05082 13.175C8.16896 13.4142 8.25585 13.6075 8.34958 13.8301H8.36227C8.456 13.5782 8.53215 13.4025 8.63173 13.175L8.96466 12.4545H9.98295L8.87093 14.3808L10.0406 16.4008H9.01054ZM13.2907 13.2043H12.2129V16.4008H11.3176V13.2043H10.2583V12.4545H13.2897L13.2907 13.2043ZM10.2573 7.57292H9.28098V2.69134L14.1626 7.57292H10.2573Z" fill="#B0B0B0"/>
</svg>
