<svg width="6" height="7" viewBox="0 0 6 7" fill="none" xmlns="http://www.w3.org/2000/svg">
<path d="M3.86367 3.76315L5.86364 1.76319C6.04545 1.58137 6.04545 1.28226 5.86364 1.10044C5.68182 0.918627 5.38271 0.918627 5.20089 1.10044L3.20093 3.10041L1.20096 1.10044C1.01915 0.918627 0.720033 0.918627 0.538218 1.10044C0.447311 1.19135 0.400391 1.31158 0.400391 1.43181C0.400391 1.55205 0.447311 1.67228 0.538218 1.76319L2.53818 3.76315L0.538218 5.76312C0.447311 5.85402 0.400391 5.97426 0.400391 6.09449C0.400391 6.21472 0.447311 6.33495 0.538218 6.42586C0.720033 6.60768 1.01915 6.60768 1.20096 6.42586L3.20093 4.4259L5.20089 6.42586C5.38271 6.60768 5.68182 6.60768 5.86364 6.42586C6.04545 6.24405 6.04545 5.94493 5.86364 5.76312L3.86367 3.76315Z" fill="black"/>
</svg>
