<svg width="12" height="13" viewBox="0 0 12 13" fill="none" xmlns="http://www.w3.org/2000/svg">
<path d="M7.42184 6.87904L11.7078 2.59311C12.0974 2.20347 12.0974 1.56247 11.7078 1.17284C11.3181 0.783208 10.6771 0.783208 10.2875 1.17284L6.00157 5.45878L1.71563 1.17284C1.326 0.783208 0.684996 0.783208 0.295365 1.17284C0.10055 1.36765 0 1.62531 0 1.88297C0 2.14063 0.10055 2.39829 0.295365 2.59311L4.5813 6.87904L0.295365 11.165C0.10055 11.3598 0 11.6175 0 11.8751C0 12.1328 0.10055 12.3904 0.295365 12.5852C0.684996 12.9749 1.326 12.9749 1.71563 12.5852L6.00157 8.29931L10.2875 12.5852C10.6771 12.9749 11.3181 12.9749 11.7078 12.5852C12.0974 12.1956 12.0974 11.5546 11.7078 11.165L7.42184 6.87904Z" fill="black"/>
</svg>
