<svg width="17" height="21" viewBox="0 0 17 21" fill="none" xmlns="http://www.w3.org/2000/svg">
<path d="M8.73895 12.9939C8.13661 12.9939 7.78516 13.5671 7.78516 14.3346C7.78516 15.107 8.14735 15.6529 8.74481 15.6529C9.34716 15.6529 9.69275 15.0787 9.69275 14.3112C9.69275 13.6022 9.35301 12.9939 8.73895 12.9939Z" fill="#1546A6"/>
<path d="M10.5101 0.736839H2.70006C2.18222 0.736839 1.6856 0.942601 1.31943 1.30886C0.953268 1.67512 0.747559 2.17187 0.747559 2.68984V18.3138C0.747559 18.8318 0.953268 19.3286 1.31943 19.6948C1.6856 20.0611 2.18222 20.2668 2.70006 20.2668H14.4151C14.9329 20.2668 15.4295 20.0611 15.7957 19.6948C16.1618 19.3286 16.3676 18.8318 16.3676 18.3138V6.59584L10.5101 0.736839ZM5.78013 15.8277C5.36424 16.1734 4.73261 16.3364 3.9604 16.3364C3.49668 16.3364 3.16963 16.3071 2.94705 16.2778V12.4002C3.34631 12.3426 3.74936 12.3156 4.15272 12.3191C4.90248 12.3191 5.38865 12.4539 5.76841 12.741C6.17844 13.0456 6.43617 13.5319 6.43617 14.2272C6.43617 14.984 6.16086 15.5054 5.78013 15.8277ZM8.69912 16.3608C7.52762 16.3608 6.84326 15.4761 6.84326 14.3512C6.84326 13.1687 7.59791 12.2849 8.76355 12.2849C9.97507 12.2849 10.637 13.1921 10.637 14.2819C10.636 15.5757 9.85109 16.3608 8.69912 16.3608ZM13.2436 15.6167C13.512 15.6167 13.8108 15.5572 13.9875 15.4878L14.1222 16.1841C13.9582 16.2661 13.5892 16.354 13.1098 16.354C11.746 16.354 11.0431 15.5054 11.0431 14.3805C11.0431 13.0339 12.0027 12.2849 13.1977 12.2849C13.6604 12.2849 14.0109 12.3787 14.169 12.4607L13.9875 13.1696C13.7498 13.0714 13.4949 13.0216 13.2377 13.0232C12.5289 13.0232 11.9783 13.4509 11.9783 14.3297C11.9783 15.1197 12.4469 15.6167 13.2436 15.6167ZM10.5101 7.57234H9.53381V2.68984L14.4151 7.57234H10.5101Z" fill="#1546A6"/>
<path d="M4.24645 13.0046C4.04827 13.0046 3.91941 13.0222 3.84326 13.0398V15.6226C3.91941 15.6402 4.04242 15.6402 4.15273 15.6402C4.96107 15.646 5.48727 15.2017 5.48727 14.2584C5.49312 13.4382 5.01379 13.0046 4.24645 13.0046Z" fill="#1546A6"/>
</svg>
