<svg width="16" height="21" viewBox="0 0 16 21" fill="none" xmlns="http://www.w3.org/2000/svg">
<path d="M2.19482 20.265H13.9106C14.4285 20.265 14.9251 20.0593 15.2913 19.6931C15.6575 19.3269 15.8632 18.8302 15.8632 18.3124V6.59657L10.0053 0.73867H2.19482C1.67695 0.73867 1.18029 0.944393 0.8141 1.31058C0.447911 1.67677 0.242188 2.17343 0.242188 2.6913V18.3124C0.242188 18.8302 0.447911 19.3269 0.8141 19.6931C1.18029 20.0593 1.67695 20.265 2.19482 20.265ZM9.02903 2.6913L13.9106 7.57288H9.02903V2.6913ZM4.63561 9.52551C4.82799 9.52558 5.01848 9.56353 5.19619 9.63721C5.3739 9.71089 5.53536 9.81886 5.67135 9.95494C5.80734 10.091 5.91519 10.2525 5.98876 10.4303C6.06232 10.6081 6.10015 10.7986 6.10008 10.991C6.10002 11.1833 6.06206 11.3738 5.98838 11.5515C5.9147 11.7293 5.80674 11.8907 5.67066 12.0267C5.53458 12.1627 5.37305 12.2705 5.19529 12.3441C5.01752 12.4177 4.82701 12.4555 4.63463 12.4554C4.2461 12.4553 3.87353 12.3008 3.59889 12.026C3.32425 11.7512 3.17003 11.3785 3.17016 10.99C3.17029 10.6015 3.32476 10.2289 3.59958 9.95424C3.87441 9.6796 4.24708 9.52538 4.63561 9.52551ZM5.12377 14.4071L6.68294 15.7378L9.02903 11.4781L12.9343 17.336H3.17113L5.12377 14.4071Z" fill="#45A9F2"/>
</svg>
