<svg width="20" height="22" viewBox="0 0 20 22" fill="none" xmlns="http://www.w3.org/2000/svg">
<path d="M16.6667 7.17949H18.8889C19.5026 7.17949 20 7.63869 20 8.20513V20.5128C20 21.0793 19.5026 21.5385 18.8889 21.5385H1.11111C0.497467 21.5385 0 21.0793 0 20.5128V8.20513C0 7.63869 0.497467 7.17949 1.11111 7.17949H3.33333V6.15385C3.33333 2.75517 6.3181 0 10 0C13.6819 0 16.6667 2.75517 16.6667 6.15385V7.17949ZM14.4444 7.17949V6.15385C14.4444 3.88806 12.4546 2.05128 10 2.05128C7.5454 2.05128 5.55556 3.88806 5.55556 6.15385V7.17949H14.4444ZM8.88889 13.3333V15.3846H11.1111V13.3333H8.88889ZM4.44444 13.3333V15.3846H6.66667V13.3333H4.44444ZM13.3333 13.3333V15.3846H15.5556V13.3333H13.3333Z" fill="#5234A5"/>
</svg>
