<svg width="48" height="60" viewBox="0 0 48 60" fill="none" xmlns="http://www.w3.org/2000/svg">
<path d="M12.7991 38.0406C12.2471 38.0406 11.8751 38.0946 11.6831 38.1486V41.6826C11.9111 41.7366 12.1961 41.7516 12.5891 41.7516C14.0261 41.7516 14.9111 41.0256 14.9111 39.7986C14.9111 38.7006 14.1491 38.0406 12.7991 38.0406ZM23.2601 38.0766C22.6601 38.0766 22.2701 38.1306 22.0391 38.1846V46.0146C22.2701 46.0686 22.6421 46.0687 22.9781 46.0687C25.4291 46.0867 27.0251 44.7366 27.0251 41.8806C27.0431 39.3906 25.5881 38.0766 23.2601 38.0766Z" fill="#FF0505"/>
<path d="M30 0H6C4.4087 0 2.88258 0.632141 1.75736 1.75736C0.632141 2.88258 0 4.4087 0 6V54C0 55.5913 0.632141 57.1174 1.75736 58.2426C2.88258 59.3679 4.4087 60 6 60H42C43.5913 60 45.1174 59.3679 46.2426 58.2426C47.3679 57.1174 48 55.5913 48 54V18L30 0ZM16.494 42.57C15.567 43.44 14.199 43.83 12.606 43.83C12.2971 43.8334 11.9884 43.8153 11.682 43.776V48.054H9V36.246C10.2104 36.0654 11.4334 35.9832 12.657 36C14.328 36 15.516 36.318 16.317 36.957C17.079 37.563 17.595 38.556 17.595 39.726C17.592 40.902 17.202 41.895 16.494 42.57ZM27.915 46.635C26.655 47.682 24.738 48.18 22.395 48.18C20.991 48.18 19.998 48.09 19.323 48V36.249C20.5338 36.0723 21.7564 35.989 22.98 36C25.251 36 26.727 36.408 27.879 37.278C29.124 38.202 29.904 39.675 29.904 41.79C29.904 44.079 29.067 45.66 27.915 46.635ZM39 38.31H34.404V41.043H38.7V43.245H34.404V48.057H31.686V36.09H39V38.31ZM30 21H27V6L42 21H30Z" fill="#FF0505"/>
</svg>
