<svg width="17" height="21" viewBox="0 0 17 21" fill="none" xmlns="http://www.w3.org/2000/svg">
<path d="M4.90225 13.1184C4.72261 13.1184 4.60155 13.136 4.53906 13.1536V14.3037C4.61326 14.3213 4.70601 14.3261 4.83391 14.3261C5.30156 14.3261 5.58958 14.0899 5.58958 13.6906C5.58958 13.3332 5.34159 13.1184 4.90225 13.1184ZM8.30666 13.1302C8.1114 13.1302 7.98448 13.1477 7.9093 13.1653V15.7135C7.98448 15.7311 8.10554 15.7311 8.21489 15.7311C9.01254 15.7369 9.53194 15.2976 9.53194 14.3681C9.5378 13.5578 9.06429 13.1302 8.30666 13.1302Z" fill="#FF0505"/>
<path d="M10.5 0.738686H2.68945C2.17158 0.738686 1.67492 0.944409 1.30873 1.3106C0.942539 1.67679 0.736816 2.17345 0.736816 2.69132V18.3124C0.736816 18.8302 0.942539 19.3269 1.30873 19.6931C1.67492 20.0593 2.17158 20.265 2.68945 20.265H14.4052C14.9231 20.265 15.4198 20.0593 15.786 19.6931C16.1521 19.3269 16.3579 18.8302 16.3579 18.3124V6.59658L10.5 0.738686ZM6.1046 14.5926C5.80292 14.8757 5.35772 15.0027 4.83929 15.0027C4.73877 15.0038 4.6383 14.9979 4.53859 14.9851V16.3773H3.66576V12.5345C4.05966 12.4758 4.45767 12.449 4.85589 12.4545C5.3997 12.4545 5.78632 12.558 6.047 12.7659C6.29498 12.9631 6.46291 13.2863 6.46291 13.6671C6.46193 14.0498 6.33501 14.3729 6.1046 14.5926ZM9.82143 15.9155C9.41138 16.2562 8.78752 16.4183 8.02501 16.4183C7.5681 16.4183 7.24494 16.389 7.02527 16.3597V12.5355C7.41931 12.478 7.81719 12.4509 8.2154 12.4545C8.95447 12.4545 9.43481 12.5873 9.80972 12.8704C10.2149 13.1711 10.4687 13.6505 10.4687 14.3388C10.4687 15.0837 10.1963 15.5982 9.82143 15.9155ZM13.4289 13.2062H11.9332V14.0957H13.3313V14.8123H11.9332V16.3783H11.0487V12.4838H13.4289V13.2062ZM10.5 7.5729H9.52366V2.69132L14.4052 7.5729H10.5Z" fill="#FF0505"/>
</svg>
