<svg width="27" height="25" viewBox="0 0 27 25" fill="none" xmlns="http://www.w3.org/2000/svg">
<path d="M11.346 21.3299C13.8544 21.3294 16.2905 20.5373 18.2664 19.0796L24.4787 24.94L26.477 23.055L20.2646 17.1946C21.8106 15.3304 22.6509 13.0318 22.6515 10.665C22.6515 4.78457 17.5796 0 11.346 0C5.11247 0 0.0405579 4.78457 0.0405579 10.665C0.0405579 16.5453 5.11247 21.3299 11.346 21.3299ZM11.346 2.66624C16.0222 2.66624 19.8251 6.25366 19.8251 10.665C19.8251 15.0762 16.0222 18.6637 11.346 18.6637C6.6698 18.6637 2.86692 15.0762 2.86692 10.665C2.86692 6.25366 6.6698 2.66624 11.346 2.66624Z" fill="#3D3D3D"/>
<path d="M13.3417 8.77997C13.8773 9.28655 14.1727 9.95578 14.1727 10.665H16.999C17.0003 9.96435 16.8543 9.27041 16.5695 8.62331C16.2848 7.9762 15.8668 7.38876 15.34 6.89494C13.2004 4.87926 9.49079 4.87926 7.35265 6.89494L9.34806 8.78263C10.4221 7.77213 12.2733 7.7748 13.3417 8.77997Z" fill="#3D3D3D"/>
</svg>
