<svg width="13" height="13" viewBox="0 0 13 13" fill="none" xmlns="http://www.w3.org/2000/svg">
<path d="M5.4802 10.763C6.68711 10.7628 7.85925 10.3816 8.80996 9.68024L11.7991 12.5L12.7605 11.593L9.77143 8.77325C10.5153 7.87631 10.9196 6.77033 10.9199 5.63149C10.9199 2.80212 8.4795 0.5 5.4802 0.5C2.4809 0.5 0.0405273 2.80212 0.0405273 5.63149C0.0405273 8.46087 2.4809 10.763 5.4802 10.763ZM5.4802 1.78287C7.73019 1.78287 9.55996 3.50898 9.55996 5.63149C9.55996 7.75401 7.73019 9.48012 5.4802 9.48012C3.23022 9.48012 1.40045 7.75401 1.40045 5.63149C1.40045 3.50898 3.23022 1.78287 5.4802 1.78287Z" fill="#4F4F4F"/>
<path d="M6.43977 4.72447C6.69748 4.96822 6.83959 5.29022 6.83959 5.63146H8.19951C8.20011 5.29434 8.12987 4.96045 7.99285 4.64909C7.85583 4.33773 7.65475 4.05508 7.40124 3.81748C6.37178 2.84762 4.58688 2.84762 3.55811 3.81748L4.51821 4.72575C5.03498 4.23954 5.92572 4.24083 6.43977 4.72447Z" fill="#4F4F4F"/>
</svg>
