<svg width="24" height="24" viewBox="0 0 24 24" fill="none" xmlns="http://www.w3.org/2000/svg">
<path d="M5.14258 16.5C5.14258 16.1022 5.32319 15.7206 5.64468 15.4393C5.96617 15.158 6.40221 15 6.85686 15C7.31152 15 7.74756 15.158 8.06905 15.4393C8.39054 15.7206 8.57115 16.1022 8.57115 16.5V18C8.57115 18.3978 8.39054 18.7794 8.06905 19.0607C7.74756 19.342 7.31152 19.5 6.85686 19.5C6.40221 19.5 5.96617 19.342 5.64468 19.0607C5.32319 18.7794 5.14258 18.3978 5.14258 18V16.5ZM15.4283 10.5C15.4283 10.1022 15.6089 9.72064 15.9304 9.43934C16.2519 9.15804 16.6879 9 17.1426 9C17.5972 9 18.0333 9.15804 18.3548 9.43934C18.6763 9.72064 18.8569 10.1022 18.8569 10.5V18C18.8569 18.3978 18.6763 18.7794 18.3548 19.0607C18.0333 19.342 17.5972 19.5 17.1426 19.5C16.6879 19.5 16.2519 19.342 15.9304 19.0607C15.6089 18.7794 15.4283 18.3978 15.4283 18V10.5ZM10.2854 13.5C10.2854 13.1022 10.466 12.7206 10.7875 12.4393C11.109 12.158 11.5451 12 11.9997 12C12.4544 12 12.8904 12.158 13.2119 12.4393C13.5334 12.7206 13.714 13.1022 13.714 13.5V18C13.714 18.3978 13.5334 18.7794 13.2119 19.0607C12.8904 19.342 12.4544 19.5 11.9997 19.5C11.5451 19.5 11.109 19.342 10.7875 19.0607C10.466 18.7794 10.2854 18.3978 10.2854 18V13.5Z" fill="#CAC9FC"/>
<path d="M5.14286 2.25H3.42857C2.51926 2.25 1.64719 2.56607 1.00421 3.12868C0.361224 3.69129 0 4.45435 0 5.25V21C0 21.7956 0.361224 22.5587 1.00421 23.1213C1.64719 23.6839 2.51926 24 3.42857 24H20.5714C21.4807 24 22.3528 23.6839 22.9958 23.1213C23.6388 22.5587 24 21.7956 24 21V5.25C24 4.45435 23.6388 3.69129 22.9958 3.12868C22.3528 2.56607 21.4807 2.25 20.5714 2.25H18.8571V3.75H20.5714C21.0261 3.75 21.4621 3.90804 21.7836 4.18934C22.1051 4.47064 22.2857 4.85218 22.2857 5.25V21C22.2857 21.3978 22.1051 21.7794 21.7836 22.0607C21.4621 22.342 21.0261 22.5 20.5714 22.5H3.42857C2.97391 22.5 2.53788 22.342 2.21639 22.0607C1.8949 21.7794 1.71429 21.3978 1.71429 21V5.25C1.71429 4.85218 1.8949 4.47064 2.21639 4.18934C2.53788 3.90804 2.97391 3.75 3.42857 3.75H5.14286V2.25Z" fill="#CAC9FC"/>
<path d="M14.5717 1.5C14.799 1.5 15.0171 1.57902 15.1778 1.71967C15.3385 1.86032 15.4289 2.05109 15.4289 2.25V3.75C15.4289 3.94891 15.3385 4.13968 15.1778 4.28033C15.0171 4.42098 14.799 4.5 14.5717 4.5H9.42885C9.20152 4.5 8.9835 4.42098 8.82276 4.28033C8.66201 4.13968 8.57171 3.94891 8.57171 3.75V2.25C8.57171 2.05109 8.66201 1.86032 8.82276 1.71967C8.9835 1.57902 9.20152 1.5 9.42885 1.5H14.5717ZM9.42885 0C8.74687 0 8.09281 0.237053 7.61058 0.65901C7.12834 1.08097 6.85742 1.65326 6.85742 2.25V3.75C6.85742 4.34674 7.12834 4.91903 7.61058 5.34099C8.09281 5.76295 8.74687 6 9.42885 6H14.5717C15.2537 6 15.9077 5.76295 16.39 5.34099C16.8722 4.91903 17.1431 4.34674 17.1431 3.75V2.25C17.1431 1.65326 16.8722 1.08097 16.39 0.65901C15.9077 0.237053 15.2537 0 14.5717 0L9.42885 0Z" fill="#CAC9FC"/>
</svg>
