<svg width="19" height="24" viewBox="0 0 19 24" fill="none" xmlns="http://www.w3.org/2000/svg">
<path d="M18.6054 6.01607L12.8411 0.251786C12.6804 0.0910715 12.4634 0 12.2357 0H0.857143C0.383036 0 0 0.383036 0 0.857143V23.1429C0 23.617 0.383036 24 0.857143 24H18C18.4741 24 18.8571 23.617 18.8571 23.1429V6.62411C18.8571 6.39643 18.7661 6.17679 18.6054 6.01607ZM16.8804 7.01786H11.8393V1.97679L16.8804 7.01786ZM16.9286 22.0714H1.92857V1.92857H10.0179V7.71429C10.0179 8.01265 10.1364 8.2988 10.3474 8.50978C10.5583 8.72076 10.8445 8.83929 11.1429 8.83929H16.9286V22.0714Z" fill="#CAC9FC"/>
</svg>
