<svg width="24" height="24" viewBox="0 0 24 24" fill="none" xmlns="http://www.w3.org/2000/svg">
<path d="M2.4 5.87755V20.5336L8.47771 18.0529L15.6778 21.4815L21.6 19.0642V4.40816L23.1636 3.76994C23.4683 3.64562 23.821 3.77999 23.9515 4.07007C23.9834 4.1412 24 4.21778 24 4.29517V20.5714L15.6 24L8.4 20.5714L0.836352 23.6586C0.531768 23.783 0.179052 23.6486 0.0485161 23.3585C0.0165001 23.2874 0 23.2107 0 23.1334V6.85714L2.4 5.87755ZM17.0911 11.7058L12 16.5546L6.90883 11.7058C4.09705 9.02799 4.09705 4.6863 6.90883 2.00841C9.7206 -0.66947 14.2794 -0.66947 17.0911 2.00841C19.903 4.6863 19.903 9.02799 17.0911 11.7058ZM12 13.3222L15.3941 10.0896C17.2686 8.30438 17.2686 5.40991 15.3941 3.62465C13.5196 1.83941 10.4804 1.83941 8.60588 3.62465C6.73138 5.40991 6.73138 8.30438 8.60588 10.0896L12 13.3222Z" fill="#CAC9FC"/>
</svg>
