<svg width="24" height="24" viewBox="0 0 24 24" fill="none" xmlns="http://www.w3.org/2000/svg">
<path d="M16.8001 16.344C17.5423 16.344 18.1441 15.7423 18.1441 15C18.1441 14.2577 17.5423 13.656 16.8001 13.656C16.0578 13.656 15.4561 14.2577 15.4561 15C15.4561 15.7423 16.0578 16.344 16.8001 16.344Z" fill="#CAC9FC"/>
<path fill-rule="evenodd" clip-rule="evenodd" d="M16.8003 17.4C15.9243 17.4 14.1723 17.832 14.1123 18.696C14.7123 19.548 15.6963 20.1 16.8003 20.1C17.9043 20.1 18.8883 19.548 19.4883 18.696C19.4283 17.832 17.6763 17.4 16.8003 17.4Z" fill="#CAC9FC"/>
<path fill-rule="evenodd" clip-rule="evenodd" d="M18 9.708V3.924L9 0L0 3.924V9.816C0 15.264 3.84 20.364 9 21.6C9.66 21.444 10.296 21.216 10.92 20.94C11.5814 21.8857 12.4613 22.6578 13.485 23.1906C14.5087 23.7233 15.646 24.001 16.8 24C20.772 24 24 20.772 24 16.8C24 13.236 21.408 10.284 18 9.708ZM9.6 16.8C9.6 17.472 9.696 18.132 9.876 18.744C9.588 18.876 9.3 19.008 9 19.104C5.196 17.904 2.4 14.016 2.4 9.816V5.496L9 2.616L15.6 5.496V9.708C12.192 10.284 9.6 13.236 9.6 16.8ZM16.8 21.6C14.148 21.6 12 19.452 12 16.8C12 14.148 14.148 12 16.8 12C19.452 12 21.6 14.148 21.6 16.8C21.6 19.452 19.452 21.6 16.8 21.6Z" fill="#CAC9FC"/>
</svg>
