<svg width="16" height="21" viewBox="0 0 16 21" fill="none" xmlns="http://www.w3.org/2000/svg">
<path d="M9.74516 0.738686H2.85497C2.16448 0.738686 1.50227 0.99584 1.01401 1.45358C0.525762 1.91131 0.251465 2.53214 0.251465 3.17948V17.8242C0.251465 18.4715 0.525762 19.0924 1.01401 19.5501C1.50227 20.0078 2.16448 20.265 2.85497 20.265H13.269C13.9595 20.265 14.6217 20.0078 15.11 19.5501C15.5982 19.0924 15.8725 18.4715 15.8725 17.8242V6.48308C15.8724 6.15944 15.7352 5.84908 15.4911 5.62026L10.6655 1.09626C10.4214 0.867377 10.0904 0.738755 9.74516 0.738686ZM10.0146 5.01007V2.56928L13.9199 6.23046H11.3164C10.9711 6.23046 10.64 6.10188 10.3959 5.87302C10.1518 5.64415 10.0146 5.33374 10.0146 5.01007ZM5.45848 9.13866C5.45846 9.0307 5.48899 8.92466 5.54696 8.83138C5.60493 8.73809 5.68826 8.66089 5.78845 8.60766C5.88864 8.55443 6.0021 8.52707 6.11725 8.52838C6.23241 8.52969 6.34513 8.55962 6.44391 8.61511L11.0365 11.1987C11.133 11.2529 11.2129 11.3296 11.2684 11.4213C11.3239 11.5131 11.3531 11.6168 11.3531 11.7222C11.3531 11.8277 11.3239 11.9314 11.2684 12.0231C11.2129 12.1149 11.133 12.1916 11.0365 12.2458L6.44391 14.8294C6.34503 14.8849 6.23219 14.9148 6.11693 14.9161C6.00166 14.9174 5.88811 14.8899 5.78788 14.8365C5.68765 14.7831 5.60434 14.7058 5.54646 14.6123C5.48859 14.5189 5.45823 14.4127 5.45848 14.3046V9.13866Z" fill="#B578F5"/>
</svg>
