<svg width="17" height="21" viewBox="0 0 17 21" fill="none" xmlns="http://www.w3.org/2000/svg">
<path d="M5.54608 12.2568V11.1121H6.84784V12.2568C6.84785 12.3568 6.86096 12.4564 6.88689 12.5534L7.40759 14.5035L6.19696 15.2602L4.98633 14.5035L5.50703 12.5534C5.53295 12.4564 5.54607 12.3568 5.54608 12.2568Z" fill="#FFDC79"/>
<path d="M10.483 0.738686H3.59277C2.90227 0.738686 2.24006 0.99584 1.75181 1.45358C1.26356 1.91131 0.989258 2.53214 0.989258 3.17948V17.8242C0.989258 18.4715 1.26356 19.0924 1.75181 19.5501C2.24006 20.0078 2.90227 20.265 3.59277 20.265H14.0068C14.6973 20.265 15.3595 20.0078 15.8478 19.5501C16.336 19.0924 16.6103 18.4715 16.6103 17.8242V6.48308C16.6102 6.15944 16.473 5.84908 16.2289 5.62026L11.4033 1.09626C11.1592 0.867377 10.8282 0.738755 10.483 0.738686ZM10.7524 5.01007V2.56928L14.6577 6.23046H12.0542C11.7089 6.23046 11.3778 6.10188 11.1337 5.87302C10.8896 5.64415 10.7524 5.33374 10.7524 5.01007ZM5.5454 4.39987V3.17948H4.24364V1.95908H6.19628V3.17948H7.49803V4.39987H6.19628V5.62026H7.49803V6.84066H6.19628V8.06105H7.49803V9.28145H5.5454V8.06105H4.24364V6.84066H5.5454V5.62026H4.24364V4.39987H5.5454ZM5.5454 9.89165H6.84715C7.1924 9.89165 7.52351 10.0202 7.76763 10.2491C8.01176 10.478 8.14891 10.7884 8.14891 11.112V12.2568L8.66961 14.2082C8.73448 14.4523 8.71727 14.7093 8.62033 14.944C8.52339 15.1786 8.35146 15.3794 8.12808 15.5189L6.91745 16.2755C6.70367 16.4091 6.45252 16.4803 6.19562 16.4803C5.93873 16.4803 5.68758 16.4091 5.4738 16.2755L4.26317 15.5189C4.04002 15.3792 3.86836 15.1784 3.77165 14.9437C3.67495 14.7091 3.65794 14.4522 3.72294 14.2082L4.24364 12.2568V11.112C4.24364 10.7884 4.38079 10.478 4.62492 10.2491C4.86905 10.0202 5.20015 9.89165 5.5454 9.89165Z" fill="#FFDC79"/>
</svg>
