<svg width="24" height="24" viewBox="0 0 24 24" fill="none" xmlns="http://www.w3.org/2000/svg">
<path d="M9.42885 0C8.74687 0 8.09281 0.237053 7.61058 0.65901C7.12834 1.08097 6.85742 1.65326 6.85742 2.25V3.75C6.85742 4.34674 7.12834 4.91903 7.61058 5.34099C8.09281 5.76295 8.74687 6 9.42885 6H14.5717C15.2537 6 15.9077 5.76295 16.39 5.34099C16.8722 4.91903 17.1431 4.34674 17.1431 3.75V2.25C17.1431 1.65326 16.8722 1.08097 16.39 0.65901C15.9077 0.237053 15.2537 0 14.5717 0L9.42885 0ZM14.5717 1.5C14.799 1.5 15.0171 1.57902 15.1778 1.71967C15.3385 1.86032 15.4289 2.05109 15.4289 2.25V3.75C15.4289 3.94891 15.3385 4.13968 15.1778 4.28033C15.0171 4.42098 14.799 4.5 14.5717 4.5H9.42885C9.20152 4.5 8.9835 4.42098 8.82276 4.28033C8.66201 4.13968 8.57171 3.94891 8.57171 3.75V2.25C8.57171 2.05109 8.66201 1.86032 8.82276 1.71967C8.9835 1.57902 9.20152 1.5 9.42885 1.5H14.5717Z" fill="white"/>
<path d="M5.14286 2.25H3.42857C2.51926 2.25 1.64719 2.56607 1.00421 3.12868C0.361224 3.69129 0 4.45435 0 5.25V21C0 21.7956 0.361224 22.5587 1.00421 23.1213C1.64719 23.6839 2.51926 24 3.42857 24H20.5714C21.4807 24 22.3528 23.6839 22.9958 23.1213C23.6388 22.5587 24 21.7956 24 21V5.25C24 4.45435 23.6388 3.69129 22.9958 3.12868C22.3528 2.56607 21.4807 2.25 20.5714 2.25H18.8571V3.75C18.8571 4.24246 18.7463 4.73009 18.5309 5.18506C18.3155 5.64003 17.9999 6.05343 17.6019 6.40165C17.2039 6.74987 16.7315 7.02609 16.2115 7.21455C15.6915 7.403 15.1342 7.5 14.5714 7.5H9.42857C8.29193 7.5 7.20184 7.10491 6.39811 6.40165C5.59439 5.69839 5.14286 4.74456 5.14286 3.75V2.25ZM15.4286 12C15.4286 11.6022 15.6092 11.2206 15.9307 10.9393C16.2522 10.658 16.6882 10.5 17.1429 10.5C17.5975 10.5 18.0335 10.658 18.355 10.9393C18.6765 11.2206 18.8571 11.6022 18.8571 12V19.5C18.8571 19.8978 18.6765 20.2794 18.355 20.5607C18.0335 20.842 17.5975 21 17.1429 21C16.6882 21 16.2522 20.842 15.9307 20.5607C15.6092 20.2794 15.4286 19.8978 15.4286 19.5V12ZM5.14286 18C5.14286 17.6022 5.32347 17.2206 5.64496 16.9393C5.96645 16.658 6.40249 16.5 6.85714 16.5C7.3118 16.5 7.74783 16.658 8.06933 16.9393C8.39082 17.2206 8.57143 17.6022 8.57143 18V19.5C8.57143 19.8978 8.39082 20.2794 8.06933 20.5607C7.74783 20.842 7.3118 21 6.85714 21C6.40249 21 5.96645 20.842 5.64496 20.5607C5.32347 20.2794 5.14286 19.8978 5.14286 19.5V18ZM12 13.5C12.4547 13.5 12.8907 13.658 13.2122 13.9393C13.5337 14.2206 13.7143 14.6022 13.7143 15V19.5C13.7143 19.8978 13.5337 20.2794 13.2122 20.5607C12.8907 20.842 12.4547 21 12 21C11.5453 21 11.1093 20.842 10.7878 20.5607C10.4663 20.2794 10.2857 19.8978 10.2857 19.5V15C10.2857 14.6022 10.4663 14.2206 10.7878 13.9393C11.1093 13.658 11.5453 13.5 12 13.5Z" fill="white"/>
</svg>
