<svg width="25" height="24" viewBox="0 0 25 24" fill="none" xmlns="http://www.w3.org/2000/svg">
<path d="M19.1665 10.6667C19.6199 10.6667 20.0599 10.72 20.4999 10.7867V4.36003L10.4999 6.10352e-05L0.5 4.36003V10.9067C0.5 16.9599 4.76664 22.6266 10.4999 23.9999C11.2333 23.8266 11.9399 23.5732 12.6333 23.2666C11.7133 21.9599 11.1666 20.3733 11.1666 18.6666C11.1666 14.2533 14.7532 10.6667 19.1665 10.6667Z" fill="white"/>
<path d="M19.1668 13.3333C16.2201 13.3333 13.8335 15.72 13.8335 18.6666C13.8335 21.6133 16.2201 23.9999 19.1668 23.9999C22.1134 23.9999 24.5001 21.6133 24.5001 18.6666C24.5001 15.72 22.1134 13.3333 19.1668 13.3333ZM19.1668 15.1733C19.9935 15.1733 20.6601 15.8533 20.6601 16.6666C20.6601 17.48 19.9801 18.1599 19.1668 18.1599C18.3535 18.1599 17.6735 17.48 17.6735 16.6666C17.6735 15.8533 18.3401 15.1733 19.1668 15.1733ZM19.1668 22.3333C17.9268 22.3333 16.8468 21.7199 16.1801 20.7733C16.2468 19.8133 18.1935 19.3333 19.1668 19.3333C20.1401 19.3333 22.0868 19.8133 22.1534 20.7733C21.4868 21.7199 20.4068 22.3333 19.1668 22.3333Z" fill="white"/>
</svg>
