<svg width="25" height="24" viewBox="0 0 25 24" fill="none" xmlns="http://www.w3.org/2000/svg">
<path d="M0.214355 21.4286C0.214355 22.1106 0.451408 22.7646 0.873365 23.2468C1.29532 23.7291 1.86762 24 2.46436 24H21.9644C22.5611 24 23.1334 23.7291 23.5553 23.2468C23.9773 22.7646 24.2144 22.1106 24.2144 21.4286V9.42857C24.2144 8.74659 23.9773 8.09253 23.5553 7.6103C23.1334 7.12806 22.5611 6.85714 21.9644 6.85714H2.46436C1.86762 6.85714 1.29532 7.12806 0.873365 7.6103C0.451408 8.09253 0.214355 8.74659 0.214355 9.42857L0.214355 21.4286ZM3.21436 4.28571C3.21436 4.51304 3.29337 4.73106 3.43403 4.89181C3.57468 5.05255 3.76544 5.14286 3.96436 5.14286H20.4644C20.6633 5.14286 20.854 5.05255 20.9947 4.89181C21.1353 4.73106 21.2144 4.51304 21.2144 4.28571C21.2144 4.05839 21.1353 3.84037 20.9947 3.67962C20.854 3.51888 20.6633 3.42857 20.4644 3.42857H3.96436C3.76544 3.42857 3.57468 3.51888 3.43403 3.67962C3.29337 3.84037 3.21436 4.05839 3.21436 4.28571ZM6.21436 0.857143C6.21436 1.08447 6.29337 1.30249 6.43403 1.46323C6.57468 1.62398 6.76544 1.71429 6.96436 1.71429H17.4644C17.6633 1.71429 17.854 1.62398 17.9947 1.46323C18.1353 1.30249 18.2144 1.08447 18.2144 0.857143C18.2144 0.629814 18.1353 0.411797 17.9947 0.251051C17.854 0.0903058 17.6633 0 17.4644 0H6.96436C6.76544 0 6.57468 0.0903058 6.43403 0.251051C6.29337 0.411797 6.21436 0.629814 6.21436 0.857143Z" fill="white"/>
</svg>
