<svg width="12" height="13" viewBox="0 0 12 13" fill="none" xmlns="http://www.w3.org/2000/svg">
<path d="M7.58754 6.5L11.7182 2.36933C12.0937 1.99381 12.0937 1.37602 11.7182 1.00051C11.3427 0.624993 10.7249 0.624993 10.3494 1.00051L6.21873 5.13118L2.08805 1.00051C1.71254 0.624993 1.09475 0.624993 0.719235 1.00051C0.531477 1.18827 0.43457 1.43659 0.43457 1.68492C0.43457 1.93324 0.531477 2.18157 0.719235 2.36933L4.84991 6.5L0.719235 10.6307C0.531477 10.8184 0.43457 11.0668 0.43457 11.3151C0.43457 11.5634 0.531477 11.8117 0.719235 11.9995C1.09475 12.375 1.71254 12.375 2.08805 11.9995L6.21873 7.86882L10.3494 11.9995C10.7249 12.375 11.3427 12.375 11.7182 11.9995C12.0937 11.624 12.0937 11.0062 11.7182 10.6307L7.58754 6.5Z" fill="#4F4F4F"/>
</svg>
