<svg width="9" height="9" viewBox="0 0 9 9" fill="none" xmlns="http://www.w3.org/2000/svg">
<path d="M4.54336 6.50928C4.55213 6.52048 4.56333 6.52954 4.57613 6.53578C4.58892 6.54201 4.60296 6.54525 4.61719 6.54525C4.63142 6.54525 4.64546 6.54201 4.65825 6.53578C4.67104 6.52954 4.68225 6.52048 4.69102 6.50928L6.00352 4.84873C6.05156 4.78779 6.0082 4.69756 5.92969 4.69756H5.06133V0.731934C5.06133 0.680371 5.01914 0.638184 4.96758 0.638184H4.26445C4.21289 0.638184 4.1707 0.680371 4.1707 0.731934V4.69639H3.30469C3.22617 4.69639 3.18281 4.78662 3.23086 4.84756L4.54336 6.50928ZM8.90625 6.09912H8.20312C8.15156 6.09912 8.10938 6.14131 8.10938 6.19287V7.99756H1.125V6.19287C1.125 6.14131 1.08281 6.09912 1.03125 6.09912H0.328125C0.276562 6.09912 0.234375 6.14131 0.234375 6.19287V8.51318C0.234375 8.72061 0.401953 8.88818 0.609375 8.88818H8.625C8.83242 8.88818 9 8.72061 9 8.51318V6.19287C9 6.14131 8.95781 6.09912 8.90625 6.09912Z" fill="#44317E"/>
</svg>
