<svg width="10" height="9" viewBox="0 0 10 9" fill="none" xmlns="http://www.w3.org/2000/svg">
<path d="M4.93003 6.50928C4.9388 6.52048 4.95001 6.52954 4.9628 6.53578C4.97559 6.54201 4.98963 6.54525 5.00386 6.54525C5.01809 6.54525 5.03213 6.54201 5.04492 6.53578C5.05771 6.52954 5.06892 6.52048 5.07769 6.50928L6.39019 4.84873C6.43824 4.78779 6.39488 4.69756 6.31636 4.69756H5.448V0.731934C5.448 0.680371 5.40581 0.638184 5.35425 0.638184H4.65113C4.59956 0.638184 4.55738 0.680371 4.55738 0.731934V4.69639H3.69136C3.61284 4.69639 3.56949 4.78662 3.61753 4.84756L4.93003 6.50928ZM9.29292 6.09912H8.5898C8.53824 6.09912 8.49605 6.14131 8.49605 6.19287V7.99756H1.51167V6.19287C1.51167 6.14131 1.46949 6.09912 1.41792 6.09912H0.714798C0.663235 6.09912 0.621048 6.14131 0.621048 6.19287V8.51318C0.621048 8.72061 0.788626 8.88818 0.996048 8.88818H9.01167C9.21909 8.88818 9.38667 8.72061 9.38667 8.51318V6.19287C9.38667 6.14131 9.34449 6.09912 9.29292 6.09912Z" fill="#744BE0"/>
</svg>
