<svg width="20" height="15" viewBox="0 0 20 15" fill="none" xmlns="http://www.w3.org/2000/svg">
<path d="M19.8675 6.88572C17.6931 2.30518 14.4062 0 9.99999 0C5.59148 0 2.30689 2.30518 0.132451 6.88801C0.0452335 7.0727 0 7.2744 0 7.47864C0 7.68289 0.0452335 7.88459 0.132451 8.06927C2.30689 12.6498 5.59378 14.955 9.99999 14.955C14.4085 14.955 17.6931 12.6498 19.8675 8.06698C20.0442 7.6954 20.0442 7.26418 19.8675 6.88572ZM9.99999 13.3035C6.30024 13.3035 3.59137 11.4273 1.68071 7.4775C3.59137 3.52773 6.30024 1.65147 9.99999 1.65147C13.6997 1.65147 16.4086 3.52773 18.3193 7.4775C16.4109 11.4273 13.702 13.3035 9.99999 13.3035ZM9.90825 3.44057C7.67876 3.44057 5.87132 5.24801 5.87132 7.4775C5.87132 9.70698 7.67876 11.5144 9.90825 11.5144C12.1377 11.5144 13.9452 9.70698 13.9452 7.4775C13.9452 5.24801 12.1377 3.44057 9.90825 3.44057ZM9.90825 10.0465C8.48844 10.0465 7.33929 8.8973 7.33929 7.4775C7.33929 6.05769 8.48844 4.90854 9.90825 4.90854C11.3281 4.90854 12.4772 6.05769 12.4772 7.4775C12.4772 8.8973 11.3281 10.0465 9.90825 10.0465Z" fill="#A8A8A8"/>
</svg>
