<svg width="15" height="15" viewBox="0 0 15 15" fill="none" xmlns="http://www.w3.org/2000/svg">
<path fill-rule="evenodd" clip-rule="evenodd" d="M3.57143 1.42857V0H5V1.42857H9.28571V0H10.7143V1.42857H13.5714C13.9659 1.42857 14.2857 1.74837 14.2857 2.14286V6.25331C13.3074 5.46909 12.0656 5 10.7143 5C7.55836 5 5 7.55836 5 10.7143C5 12.0656 5.46909 13.3074 6.25329 14.2857H0.714286C0.3198 14.2857 0 13.9659 0 13.5714V2.14286C0 1.74837 0.3198 1.42857 0.714286 1.42857H3.57143ZM10.7143 15C13.0812 15 15 13.0812 15 10.7143C15 8.34736 13.0812 6.42857 10.7143 6.42857C8.34736 6.42857 6.42857 8.34736 6.42857 10.7143C6.42857 13.0812 8.34736 15 10.7143 15ZM10.7143 10.0983L12.2499 8.57143L12.8571 9.17872L11.3302 10.7143L12.8571 12.2499L12.2499 12.8571L10.7143 11.3302L9.17872 12.8571L8.57143 12.2499L10.0983 10.7143L8.57143 9.17872L9.17872 8.57143L10.7143 10.0983Z" fill="#7E3030"/>
</svg>
