<svg width="15" height="15" viewBox="0 0 15 15" fill="none" xmlns="http://www.w3.org/2000/svg">
<path d="M3.57143 0V1.42857H0.714286C0.3198 1.42857 0 1.74837 0 2.14286V13.5714C0 13.9659 0.3198 14.2857 0.714286 14.2857H6.25329C5.46909 13.3074 5 12.0656 5 10.7143C5 7.55836 7.55836 5 10.7143 5C12.0656 5 13.3074 5.46909 14.2857 6.25331V2.14286C14.2857 1.74837 13.9659 1.42857 13.5714 1.42857H10.7143V0H9.28571V1.42857H5V0H3.57143ZM15 10.7143C15 13.0812 13.0812 15 10.7143 15C8.34736 15 6.42857 13.0812 6.42857 10.7143C6.42857 8.34736 8.34736 6.42857 10.7143 6.42857C13.0812 6.42857 15 8.34736 15 10.7143ZM10 7.85714V11.0101L11.6378 12.6479L12.6479 11.6378L11.4286 10.4184V7.85714H10Z" fill="#B08C0B"/>
</svg>
